<mxfile host="app.diagrams.net" agent="Mozilla/5.0 (Windows NT 10.0; Win64; x64) AppleWebKit/537.36 (KHTML, like Gecko) Chrome/134.0.0.0 Safari/537.36" version="26.1.3">
  <diagram name="第 1 页" id="AJdQkS-t9H4T7QmYFVXM">
    <mxGraphModel dx="1674" dy="833" grid="1" gridSize="10" guides="1" tooltips="1" connect="1" arrows="1" fold="1" page="1" pageScale="1" pageWidth="1169" pageHeight="827" math="0" shadow="0">
      <root>
        <mxCell id="0" />
        <mxCell id="1" parent="0" />
        <mxCell id="1DqzALUoF-X8bAJtDd97-14" value="" style="rounded=1;whiteSpace=wrap;html=1;" vertex="1" parent="1">
          <mxGeometry x="1169" y="230" width="160" height="280" as="geometry" />
        </mxCell>
        <mxCell id="1DqzALUoF-X8bAJtDd97-3" value="" style="edgeStyle=orthogonalEdgeStyle;rounded=0;orthogonalLoop=1;jettySize=auto;html=1;" edge="1" parent="1" source="1DqzALUoF-X8bAJtDd97-1" target="1DqzALUoF-X8bAJtDd97-2">
          <mxGeometry relative="1" as="geometry" />
        </mxCell>
        <mxCell id="1DqzALUoF-X8bAJtDd97-1" value="native method" style="rounded=1;whiteSpace=wrap;html=1;" vertex="1" parent="1">
          <mxGeometry x="160" y="330" width="120" height="60" as="geometry" />
        </mxCell>
        <mxCell id="1DqzALUoF-X8bAJtDd97-7" value="" style="edgeStyle=orthogonalEdgeStyle;rounded=0;orthogonalLoop=1;jettySize=auto;html=1;" edge="1" parent="1" source="1DqzALUoF-X8bAJtDd97-2" target="1DqzALUoF-X8bAJtDd97-6">
          <mxGeometry relative="1" as="geometry" />
        </mxCell>
        <mxCell id="1DqzALUoF-X8bAJtDd97-2" value="java的头文件" style="whiteSpace=wrap;html=1;rounded=1;" vertex="1" parent="1">
          <mxGeometry x="410" y="330" width="120" height="60" as="geometry" />
        </mxCell>
        <mxCell id="1DqzALUoF-X8bAJtDd97-4" value="JNI编译" style="text;html=1;align=center;verticalAlign=middle;resizable=0;points=[];autosize=1;strokeColor=none;fillColor=none;" vertex="1" parent="1">
          <mxGeometry x="295" y="338" width="70" height="30" as="geometry" />
        </mxCell>
        <mxCell id="1DqzALUoF-X8bAJtDd97-5" value="com_zts_xtp_quote_api_QuoteApi.h" style="text;html=1;align=center;verticalAlign=middle;whiteSpace=wrap;rounded=0;" vertex="1" parent="1">
          <mxGeometry x="440" y="280" width="60" height="30" as="geometry" />
        </mxCell>
        <mxCell id="1DqzALUoF-X8bAJtDd97-18" style="edgeStyle=orthogonalEdgeStyle;rounded=0;orthogonalLoop=1;jettySize=auto;html=1;" edge="1" parent="1" source="1DqzALUoF-X8bAJtDd97-6" target="1DqzALUoF-X8bAJtDd97-15">
          <mxGeometry relative="1" as="geometry" />
        </mxCell>
        <mxCell id="1DqzALUoF-X8bAJtDd97-6" value="java头文件的实现 cpp" style="whiteSpace=wrap;html=1;rounded=1;" vertex="1" parent="1">
          <mxGeometry x="690" y="330" width="120" height="60" as="geometry" />
        </mxCell>
        <UserObject label="XtpQuoteAdapter.cpp" link="XtpQuoteAdapter.cpp" id="1DqzALUoF-X8bAJtDd97-8">
          <mxCell style="text;whiteSpace=wrap;" vertex="1" parent="1">
            <mxGeometry x="690" y="280" width="150" height="40" as="geometry" />
          </mxCell>
        </UserObject>
        <mxCell id="1DqzALUoF-X8bAJtDd97-9" value="java 调用 三方提供的so包" style="text;html=1;align=center;verticalAlign=middle;whiteSpace=wrap;rounded=0;" vertex="1" parent="1">
          <mxGeometry x="160" y="180" width="160" height="30" as="geometry" />
        </mxCell>
        <mxCell id="1DqzALUoF-X8bAJtDd97-16" value="" style="edgeStyle=orthogonalEdgeStyle;rounded=0;orthogonalLoop=1;jettySize=auto;html=1;" edge="1" parent="1" source="1DqzALUoF-X8bAJtDd97-11" target="1DqzALUoF-X8bAJtDd97-15">
          <mxGeometry relative="1" as="geometry" />
        </mxCell>
        <mxCell id="1DqzALUoF-X8bAJtDd97-11" value="xtp_quote_api.h" style="rounded=1;whiteSpace=wrap;html=1;" vertex="1" parent="1">
          <mxGeometry x="1189" y="323" width="120" height="60" as="geometry" />
        </mxCell>
        <mxCell id="1DqzALUoF-X8bAJtDd97-12" value="三方提供的头文件 和 包" style="text;html=1;align=center;verticalAlign=middle;whiteSpace=wrap;rounded=0;" vertex="1" parent="1">
          <mxGeometry x="1169" y="260" width="160" height="30" as="geometry" />
        </mxCell>
        <mxCell id="1DqzALUoF-X8bAJtDd97-13" value="libquoteapi.so" style="rounded=1;whiteSpace=wrap;html=1;" vertex="1" parent="1">
          <mxGeometry x="1189" y="414" width="120" height="60" as="geometry" />
        </mxCell>
        <mxCell id="1DqzALUoF-X8bAJtDd97-15" value="XtpQuoteApi.h" style="whiteSpace=wrap;html=1;rounded=1;" vertex="1" parent="1">
          <mxGeometry x="989" y="330" width="120" height="60" as="geometry" />
        </mxCell>
        <mxCell id="1DqzALUoF-X8bAJtDd97-17" value="又包了一层，里面有直接调用的实现" style="text;html=1;align=center;verticalAlign=middle;whiteSpace=wrap;rounded=0;" vertex="1" parent="1">
          <mxGeometry x="960" y="250" width="160" height="50" as="geometry" />
        </mxCell>
      </root>
    </mxGraphModel>
  </diagram>
</mxfile>
